<mxfile host="65bd71144e">
    <diagram id="R2lEEEUBdFMjLlhIrx00" name="Page-1">
        <mxGraphModel dx="160" dy="189" grid="1" gridSize="10" guides="1" tooltips="1" connect="1" arrows="1" fold="1" page="1" pageScale="1" pageWidth="500" pageHeight="300" math="0" shadow="0" extFonts="Permanent Marker^https://fonts.googleapis.com/css?family=Permanent+Marker">
            <root>
                <mxCell id="0"/>
                <mxCell id="1" parent="0"/>
                <mxCell id="116" style="edgeStyle=none;html=1;endArrow=none;endFill=0;" parent="1" source="112" target="117" edge="1">
                    <mxGeometry relative="1" as="geometry">
                        <mxPoint x="746.5" y="385.0000000000001" as="targetPoint"/>
                    </mxGeometry>
                </mxCell>
                <mxCell id="118" style="edgeStyle=none;html=1;endArrow=none;endFill=0;" parent="1" source="112" target="119" edge="1">
                    <mxGeometry relative="1" as="geometry">
                        <mxPoint x="871.5000000000002" y="425" as="targetPoint"/>
                    </mxGeometry>
                </mxCell>
                <mxCell id="120" style="edgeStyle=none;html=1;endArrow=none;endFill=0;" parent="1" source="112" target="121" edge="1">
                    <mxGeometry relative="1" as="geometry">
                        <mxPoint x="881.5000000000002" y="485" as="targetPoint"/>
                    </mxGeometry>
                </mxCell>
                <mxCell id="122" style="edgeStyle=none;html=1;endArrow=none;endFill=0;" parent="1" source="112" target="123" edge="1">
                    <mxGeometry relative="1" as="geometry">
                        <mxPoint x="651.5" y="425" as="targetPoint"/>
                    </mxGeometry>
                </mxCell>
                <mxCell id="124" style="edgeStyle=none;html=1;endArrow=none;endFill=0;" parent="1" source="112" target="125" edge="1">
                    <mxGeometry relative="1" as="geometry">
                        <mxPoint x="861.5" y="435" as="targetPoint"/>
                    </mxGeometry>
                </mxCell>
                <mxCell id="126" style="edgeStyle=none;html=1;endArrow=none;endFill=0;" parent="1" source="112" target="127" edge="1">
                    <mxGeometry relative="1" as="geometry">
                        <mxPoint x="611.5" y="475" as="targetPoint"/>
                    </mxGeometry>
                </mxCell>
                <mxCell id="128" style="edgeStyle=none;html=1;endArrow=none;endFill=0;" parent="1" source="112" target="129" edge="1">
                    <mxGeometry relative="1" as="geometry">
                        <mxPoint x="861.5" y="495" as="targetPoint"/>
                    </mxGeometry>
                </mxCell>
                <mxCell id="112" value="Usuario no Autenticado" style="shape=umlActor;verticalLabelPosition=bottom;verticalAlign=top;html=1;outlineConnect=0;" parent="1" vertex="1">
                    <mxGeometry x="731.5" y="475" width="30" height="60" as="geometry"/>
                </mxCell>
                <mxCell id="117" value="Iniciar sesión" style="ellipse;whiteSpace=wrap;html=1;" parent="1" vertex="1">
                    <mxGeometry x="539" y="495" width="87.5" height="40" as="geometry"/>
                </mxCell>
                <mxCell id="119" value="Iniciar sesión con Google" style="ellipse;whiteSpace=wrap;html=1;" parent="1" vertex="1">
                    <mxGeometry x="551.5" y="385" width="110" height="60" as="geometry"/>
                </mxCell>
                <mxCell id="121" value="Iniciar sesión con GitHub" style="ellipse;whiteSpace=wrap;html=1;" parent="1" vertex="1">
                    <mxGeometry x="771.5" y="360" width="120" height="50" as="geometry"/>
                </mxCell>
                <mxCell id="123" value="Registrarse con Google" style="ellipse;whiteSpace=wrap;html=1;" parent="1" vertex="1">
                    <mxGeometry x="651.5" y="350" width="110" height="60" as="geometry"/>
                </mxCell>
                <mxCell id="125" value="Registrarse con GitHub" style="ellipse;whiteSpace=wrap;html=1;" parent="1" vertex="1">
                    <mxGeometry x="841.5" y="415" width="110" height="50" as="geometry"/>
                </mxCell>
                <mxCell id="127" value="Registrarse" style="ellipse;whiteSpace=wrap;html=1;" parent="1" vertex="1">
                    <mxGeometry x="539" y="450" width="90" height="40" as="geometry"/>
                </mxCell>
                <mxCell id="129" value="Recibir código de verificación" style="ellipse;whiteSpace=wrap;html=1;" parent="1" vertex="1">
                    <mxGeometry x="851.5" y="485" width="110" height="50" as="geometry"/>
                </mxCell>
            </root>
        </mxGraphModel>
    </diagram>
</mxfile>